<?xml version="1.0" standalone="no"?>
<!DOCTYPE svg PUBLIC "-//W3C//DTD SVG 20010904//EN"
 "http://www.w3.org/TR/2001/REC-SVG-20010904/DTD/svg10.dtd">
<svg version="1.0" xmlns="http://www.w3.org/2000/svg"
 width="322.000000pt" height="322.000000pt" viewBox="0 0 322.000000 322.000000"
 preserveAspectRatio="xMidYMid meet">
<metadata>
Created by potrace 1.14, written by Peter Selinger 2001-2017
</metadata>
<g transform="translate(0.000000,322.000000) scale(0.100000,-0.100000)"
fill="#000000" stroke="none">
<path d="M1483 3208 c-115 -9 -173 -19 -283 -49 -377 -100 -710 -341 -928
-670 -86 -130 -192 -372 -217 -496 -3 -16 -13 -62 -22 -103 -14 -65 -16 -196
-20 -977 l-4 -903 313 -1 c923 -2 1397 0 1433 5 22 3 65 8 95 11 92 10 275 62
388 110 265 112 485 285 665 523 40 54 157 244 157 257 0 2 11 28 25 57 102
220 150 539 122 813 -41 408 -253 800 -577 1065 -202 166 -467 290 -720 336
-14 3 -36 7 -50 9 -89 16 -267 22 -377 13z"/>
</g>
</svg>
